#!OML:ASF F:\VICON\USERDATA\INSTALL\rory3\rory3.ASF
:FULLY-SPECIFIED
:DEGREES
242
root 0.82962 16.3614 -12.1623 20.5669 -0.853874 -4.10336
lowerback 20.1419 1.35826 2.08206
upperback 0.928751 2.63411 3.50385
thorax -10.3807 1.23569 1.91468
lowerneck -26.5668 -5.97058 -8.09832
upperneck 16.7833 -7.04134 8.15426
head 10.2975 -2.78301 3.07365
rclavicle -3.18055e-014 -2.14687e-014
rhumerus -36.3661 7.79672 -81.1227
rradius 94.2603
rwrist 5.60792
rhand -25.0009 26.8699
rfingers 7.12502
rthumb 1.5107 -3.10447
lclavicle -3.18055e-014 -2.14687e-014
lhumerus -32.0825 -8.05034 86.1232
lradius 71.1786
lwrist 16.971
lhand -22.5816 25.8249
lfingers 7.12502
lthumb 3.84716 55.7699
rfemur -26.757 0.999309 28.083
rtibia 46.8105
rfoot -28.0147 -16.3317
rtoes -11.266
lfemur -39.5708 0.0452236 -15.4333
ltibia 64.8855
lfoot -23.3507 -0.228638
ltoes -26.0416
243
root 0.822335 16.4931 -11.8553 19.3704 -0.870266 -4.03642
lowerback 19.3891 1.32954 1.9022
upperback 0.725149 2.54315 3.56145
thorax -10.1967 1.20727 2.11728
lowerneck -26.2381 -5.94546 -8.15885
upperneck 17.3705 -7.06015 8.18939
head 10.4602 -2.7939 3.10205
rclavicle -7.95139e-015 3.18055e-015
rhumerus -38.922 8.99978 -81.2354
rradius 96.2777
rwrist 6.64258
rhand -25.1885 27.396
rfingers 7.12502
rthumb 1.32955 -2.57964
lclavicle -7.95139e-015 3.18055e-015
lhumerus -34.6859 -8.58941 86.1532
lradius 72.4453
lwrist 17.5644
lhand -23.4713 25.571
lfingers 7.12502
lthumb 2.98796 55.5298
rfemur -22.845 0.00619986 27.9
rtibia 43.8724
rfoot -26.6837 -14.9701
rtoes -12.6075
lfemur -35.7899 0.117693 -15.603
ltibia 62.4904
lfoot -22.5999 -0.529354
ltoes -26.2369
244
root 0.818092 16.6364 -11.5479 18.4785 -1.43851 -4.14813
lowerback 18.2511 1.49717 1.63007
upperback 0.503291 2.67831 3.61129
thorax -9.82438 1.29094 2.3069
lowerneck -25.9256 -5.92072 -8.25083
upperneck 17.9465 -7.0859 8.30111
head 10.6276 -2.80077 3.16285
rclavicle -2.38542e-015 -1.19271e-014
rhumerus -41.531 10.2038 -81.4708
rradius 98.4031
rwrist 7.43544
rhand -25.3621 27.8916
rfingers 7.12502
rthumb 1.1618 -2.08502
lclavicle -2.38542e-015 -1.19271e-014
lhumerus -37.2044 -9.02114 86.1984
lradius 73.6513
lwrist 18.0332
lhand -23.8236 24.8398
lfingers 7.12502
lthumb 2.64774 54.8031
rfemur -19.4434 -0.487594 27.618
rtibia 41.1543
rfoot -25.0475 -13.2357
rtoes -14.4796
lfemur -32.3064 0.693323 -15.7389
ltibia 60.0335
lfoot -21.2682 -1.12735
ltoes -26.3114
245
root 0.820009 16.7762 -11.2332 17.6378 -1.19407 -3.94298
lowerback 16.8874 1.36628 1.61722
upperback 0.299364 2.462 3.60781
thorax -9.27481 1.19446 2.38569
lowerneck -25.6529 -5.91145 -8.17669
upperneck 18.5225 -7.15121 8.24472
head 10.7918 -2.83361 3.1281
rclavicle 1.78906e-014 1.59028e-015
rhumerus -44.2709 11.1731 -81.8054
rradius 100.767
rwrist 7.87525
rhand -25.4842 28.0234
rfingers 7.12502
rthumb 1.04395 -1.95382
lclavicle 1.78906e-014 1.59028e-015
lhumerus -39.6627 -9.57727 86.2454
lradius 74.9021
lwrist 18.4398
lhand -23.5764 24.848
lfingers 7.12502
lthumb 2.88642 54.8082
rfemur -16.2534 -1.55813 27.2026
rtibia 38.7246
rfoot -23.107 -11.4566
rtoes -16.4269
lfemur -29.0898 0.396335 -15.9055
ltibia 57.4876
lfoot -19.2924 -2.03404
ltoes -26.3533
246
root 0.825074 16.9242 -10.9116 16.7504 -0.787708 -3.79999
lowerback 15.4577 1.15832 1.7428
upperback 0.12166 2.1656 3.6269
thorax -8.64805 1.05258 2.42299
lowerneck -25.0217 -5.83261 -8.08441
upperneck 18.9423 -7.14002 8.17628
head 10.8265 -2.84225 3.10153
rclavicle -1.19271e-014 -5.80451e-014
rhumerus -46.9946 12.2713 -82.2634
rradius 102.999
rwrist 7.90624
rhand -26.0491 28.3561
rfingers 7.12502
rthumb 0.498319 -1.62306
lclavicle -1.19271e-014 -5.80451e-014
lhumerus -42.0707 -9.99384 86.2768
lradius 76.0269
lwrist 18.6822
lhand -23.5662 25.7369
lfingers 7.12502
lthumb 2.89632 55.697
rfemur -13.2186 -2.5111 26.8348
rtibia 36.6159
rfoot -20.3985 -9.50403
rtoes -17.4287
lfemur -25.8274 -0.118261 -15.939
ltibia 54.797
lfoot -17.0691 -2.91738
ltoes -27.0381
247
root 0.828461 17.1096 -10.5793 15.941 -1.0122 -3.79559
lowerback 13.814 1.17894 1.69004
upperback 0.112689 2.12245 3.66686
thorax -7.7311 1.03949 2.52324
lowerneck -24.4116 -5.73541 -8.10162
upperneck 19.2339 -7.06442 8.16167
head 10.8174 -2.82388 3.12242
rclavicle 1.43125e-014 2.8625e-014
rhumerus -49.3489 13.4258 -82.6937
rradius 105.082
rwrist 7.5125
rhand -27.106 29.4268
rfingers 7.12502
rthumb -0.522432 -0.552303
lclavicle 1.43125e-014 2.8625e-014
lhumerus -44.1771 -10.2658 86.2879
lradius 77.0744
lwrist 18.829
lhand -24.0101 27.012
lfingers 7.12502
lthumb 2.46759 56.9775
rfemur -10.593 -2.68054 26.406
rtibia 34.8826
rfoot -16.7189 -7.55741
rtoes -17.8369
lfemur -22.577 -0.162811 -15.9929
ltibia 51.8727
lfoot -14.3263 -3.88902
ltoes -27.7433
